<svg version="1.1" id="google_plus" xmlns="http://www.w3.org/2000/svg" xmlns:xlink="http://www.w3.org/1999/xlink" x="0px" y="0px"
	 width="33.4px" height="21.2px" viewBox="0 0 33.4 21.2" style="enable-background:new 0 0 33.4 21.2;" xml:space="preserve">
<style type="text/css">
	
	
</style>
<g>
	<g>
		<path class="google_plus-st1" d="M10.6,8.5v4.2c0,0,4.1,0,5.7,0c-0.9,2.7-2.3,4.2-5.7,4.2c-3.5,0-6.2-2.8-6.2-6.3s2.7-6.3,6.2-6.3
			c1.8,0,3,0.6,4.1,1.5c0.9-0.9,0.8-1,3-3.1C15.8,1,13.3,0,10.6,0C4.7,0,0,4.7,0,10.6s4.7,10.6,10.6,10.6c8.7,0,10.9-7.6,10.2-12.7
			C18.7,8.5,10.6,8.5,10.6,8.5z M29.7,8.7V5h-2.6v3.7h-3.8v2.6h3.8v3.8h2.6v-3.8h3.7V8.7H29.7z"/>
	</g>
</g>
</svg>
