<svg version="1.1" id="linkedin" xmlns="http://www.w3.org/2000/svg" xmlns:xlink="http://www.w3.org/1999/xlink" x="0px" y="0px"
	 width="10.9px" height="10.9px" viewBox="0 0 10.9 10.9" style="enable-background:new 0 0 10.9 10.9;" xml:space="preserve">
<style type="text/css">
	
</style>
<g>
	<path class="linked_in-st3" d="M0.2,3.6h2.3v7.3H0.2V3.6z M1.3,0C2,0,2.6,0.6,2.6,1.3C2.6,2,2,2.6,1.3,2.6C0.6,2.6,0,2,0,1.3
		C0,0.6,0.6,0,1.3,0"/>
	<path class="linked_in-st3" d="M3.9,3.6H6v1h0c0.3-0.6,1-1.2,2.1-1.2c2.3,0,2.7,1.5,2.7,3.5v4H8.7V7.4c0-0.8,0-1.9-1.2-1.9
		c-1.2,0-1.4,0.9-1.4,1.9v3.6H3.9V3.6z"/>
</g>
</svg>
