<svg version="1.1" id="twitter_icon" xmlns="http://www.w3.org/2000/svg" xmlns:xlink="http://www.w3.org/1999/xlink" x="0px" y="0px"
	 width="13.2px" height="10.7px" viewBox="0 0 13.2 10.7" style="enable-background:new 0 0 13.2 10.7;" xml:space="preserve">
<style type="text/css">
	
</style>
<path class="twitter_icon-st3" d="M13.2,1.3c-0.5,0.2-1,0.4-1.5,0.4c0.6-0.3,1-0.9,1.2-1.5c-0.5,0.3-1.1,0.5-1.7,0.7C10.6,0.3,9.9,0,9.1,0
	C7.6,0,6.4,1.2,6.4,2.7c0,0.2,0,0.4,0.1,0.6C4.2,3.2,2.2,2.1,0.9,0.5C0.7,0.9,0.6,1.4,0.6,1.9c0,0.9,0.5,1.8,1.2,2.2
	C1.3,4.1,0.9,4,0.5,3.8c0,0,0,0,0,0c0,1.3,0.9,2.4,2.2,2.6C2.5,6.5,2.2,6.5,2,6.5c-0.2,0-0.3,0-0.5,0C1.8,7.6,2.8,8.3,4,8.4
	C3.1,9.1,1.9,9.5,0.6,9.5c-0.2,0-0.4,0-0.6,0c1.2,0.8,2.6,1.2,4.1,1.2c5,0,7.7-4.1,7.7-7.7c0-0.1,0-0.2,0-0.3
	C12.3,2.3,12.8,1.8,13.2,1.3z"/>
</svg>
